<svg height="48" viewBox="0 0 48 48" width="48" xmlns="http://www.w3.org/2000/svg"><g fill="none" fill-rule="evenodd"><rect fill="#021466" height="48" rx="7" width="48"/><path d="m24 8c8.836556 0 16 7.163444 16 16s-7.163444 16-16 16c-7.1186328 0-13.3114992-4.6890018-15.32409326-11.38483l-.09559542-.3309092 1.92728318-.5343964c1.6667496 6.0110779 7.1615658 10.2501356 13.4924055 10.2501356 7.7319865 0 14-6.2680135 14-14s-6.2680135-14-14-14c-6.2307282 0-11.6508631 4.1059693-13.4099302 9.9644774l-.0891866.309948-1.92824997-.5308975c1.89576877-6.8855396 8.18151377-11.7435279 15.42736677-11.7435279zm0 5c6.0751322 0 11 4.9248678 11 11s-4.9248678 11-11 11c-1.8205923 0-3.5785661-.4436431-5.1501704-1.2778654l-.3338747-.1847208.9984161-1.7329644c1.3529872.7794991 2.8878024 1.1955506 4.485629 1.1955506 4.9705627 0 9-4.0294373 9-9s-4.0294373-9-9-9c-1.476203 0-2.8986163.3551256-4.1735308 1.0238732l-.3156014.1736967-.9991955-1.732515c1.6556747-.9548793 3.53599-1.4650549 5.4883277-1.4650549zm0 5c3.3137085 0 6 2.6862915 6 6s-2.6862915 6-6 6c-.3839002 0-.7635747-.0361848-1.1352424-.1074354l-.2771904-.0599953.4694013-1.9441354c.3058655.0738496.6215812.1115661.9430315.1115661 2.209139 0 4-1.790861 4-4s-1.790861-4-4-4c-.2406166 0-.4780204.0211327-.7104858.0627343l-.2307553.0483999-.4684982-1.9443532c.4584445-.1104637.9308045-.166781 1.4097393-.166781zm-6.2928932.2928932 5.7071068 5.7071068-5.7071068 5.7071068-1.4142136-1.4142136 3.2911068-3.2928932h-11.584v-2h11.586l-3.2931068-3.2928932z" fill="#fff" fill-rule="nonzero"/></g></svg>